<svg width="152" height="152" viewBox="0 0 152 152" fill="none" xmlns="http://www.w3.org/2000/svg">
<path d="M93.7331 40.5325C97.0315 40.5325 99.8181 42.658 100.867 45.5991H127.132C128.181 42.658 130.968 40.5325 134.266 40.5325C138.456 40.5325 141.866 43.9423 141.866 48.1324C141.866 52.3224 138.456 55.7322 134.266 55.7322C130.968 55.7322 128.181 53.6068 127.132 50.6657H100.864C99.8156 53.6068 97.029 55.7322 93.7306 55.7322C89.5405 55.7322 86.1306 52.3224 86.1306 48.1324C86.1306 43.9423 89.543 40.5325 93.7331 40.5325ZM134.266 50.6657C135.662 50.6657 136.8 49.5307 136.8 48.1324C136.8 46.734 135.662 45.5991 134.266 45.5991C132.87 45.5991 131.733 46.734 131.733 48.1324C131.733 49.5307 132.87 50.6657 134.266 50.6657ZM93.7331 50.6657C95.129 50.6657 96.2664 49.5307 96.2664 48.1324C96.2664 46.734 95.129 45.5991 93.7331 45.5991C92.3372 45.5991 91.1998 46.734 91.1998 48.1324C91.1998 49.5307 92.3372 50.6657 93.7331 50.6657Z" fill="#00B2FF"/>
<path d="M73.4676 56.1983V40.5325C73.4676 39.8587 73.7336 39.2152 74.2098 38.7415L84.3431 28.6084C84.8169 28.1321 85.4629 27.8661 86.1342 27.8661H94.2003C95.2491 24.925 98.0357 22.7996 101.334 22.7996C105.524 22.7996 108.934 26.2094 108.934 30.3994C108.934 34.5894 105.524 37.9992 101.334 37.9992C98.0357 37.9992 95.2491 35.8738 94.2003 32.9327H87.183L78.5342 41.5813V56.1983C81.4754 57.2471 83.6009 60.0337 83.6009 63.332C83.6009 67.5221 80.191 70.9319 76.0009 70.9319C71.8108 70.9319 68.4009 67.5221 68.4009 63.332C68.4009 60.0337 70.5264 57.2471 73.4676 56.1983ZM101.334 32.9327C102.73 32.9327 103.867 31.7978 103.867 30.3994C103.867 29.001 102.73 27.8661 101.334 27.8661C99.9383 27.8661 98.8008 29.001 98.8008 30.3994C98.8008 31.7978 99.9383 32.9327 101.334 32.9327ZM76.0009 65.8653C77.3968 65.8653 78.5342 64.7304 78.5342 63.332C78.5342 61.9337 77.3968 60.7988 76.0009 60.7988C74.605 60.7988 73.4676 61.9337 73.4676 63.332C73.4676 64.7304 74.605 65.8653 76.0009 65.8653Z" fill="#00B2FF"/>
<path d="M27.8674 65.8653C29.0378 65.8653 30.1322 66.1515 31.1227 66.6278L35.4673 62.2832V37.9992C35.4673 37.3253 35.7333 36.6819 36.2096 36.2082L61.5631 10.8551C61.0868 9.86459 60.8006 8.77021 60.8006 7.59984C60.8006 3.40979 64.2104 0 68.4005 0C72.5906 0 76.0005 3.40979 76.0005 7.59984C76.0005 11.7899 72.5906 15.1997 68.4005 15.1997C67.2301 15.1997 66.1357 14.9134 65.1452 14.4372L40.534 39.048V63.332C40.534 64.0058 40.268 64.6493 39.7917 65.123L34.7048 70.2098C35.1811 71.2004 35.4673 72.2947 35.4673 73.4651C35.4673 77.6552 32.0575 81.0649 27.8674 81.0649C23.6773 81.0649 20.2674 77.6552 20.2674 73.4651C20.2674 69.2751 23.6773 65.8653 27.8674 65.8653ZM68.4005 10.1331C69.7964 10.1331 70.9338 8.99821 70.9338 7.59984C70.9338 6.20147 69.7964 5.06656 68.4005 5.06656C67.0047 5.06656 65.8672 6.20147 65.8672 7.59984C65.8672 8.99821 67.0047 10.1331 68.4005 10.1331ZM27.8674 75.9984C29.2632 75.9984 30.4007 74.8635 30.4007 73.4651C30.4007 72.0667 29.2632 70.9318 27.8674 70.9318C26.4715 70.9318 25.3341 72.0667 25.3341 73.4651C25.3341 74.8635 26.4715 75.9984 27.8674 75.9984Z" fill="#00B2FF"/>
<path d="M5.06757 35.932V25.3328C5.06757 24.6589 5.33357 24.0155 5.80983 23.5418L23.5431 5.80881C24.0168 5.33255 24.6628 5.06656 25.3341 5.06656H38.4669C39.5157 2.12542 42.3023 0 45.6007 0C49.7908 0 53.2007 3.40979 53.2007 7.59984C53.2007 11.7899 49.7908 15.1997 45.6007 15.1997C42.3023 15.1997 39.5157 13.0743 38.4669 10.1331H26.3829L10.1342 26.3816V35.932C13.0754 36.9808 15.2009 39.7674 15.2009 43.0658C15.2009 47.2558 11.791 50.6656 7.60089 50.6656C3.41078 50.6656 0.000924587 47.2558 0.000924587 43.0658C0.000924587 39.7674 2.12638 36.9808 5.06757 35.932ZM45.6007 10.1331C46.9966 10.1331 48.134 8.99821 48.134 7.59984C48.134 6.20147 46.9966 5.06656 45.6007 5.06656C44.2049 5.06656 43.0674 6.20147 43.0674 7.59984C43.0674 8.99821 44.2049 10.1331 45.6007 10.1331ZM7.60089 45.599C8.99675 45.599 10.1342 44.4641 10.1342 43.0658C10.1342 41.6674 8.99675 40.5325 7.60089 40.5325C6.20503 40.5325 5.06757 41.6674 5.06757 43.0658C5.06757 44.4641 6.20503 45.599 7.60089 45.599Z" fill="#00B2FF"/>
<path d="M40.5314 137.266V100.865C37.5928 99.8163 35.4673 97.0297 35.4673 93.7314C35.4673 89.5413 38.8771 86.1315 43.0673 86.1315C46.3656 86.1315 49.1523 88.257 50.2011 91.1981H76.4666C77.5154 88.257 80.302 86.1315 83.6004 86.1315C86.8988 86.1315 89.6854 88.257 90.7342 91.1981H105.352L114.763 81.787C114.287 80.7965 114 79.7021 114 78.5317C114 74.3417 117.41 70.9319 121.6 70.9319C125.79 70.9319 129.2 74.3417 129.2 78.5317C129.2 82.7217 125.79 86.1315 121.6 86.1315C120.43 86.1315 119.335 85.8453 118.345 85.369L108.191 95.5224C107.718 95.9987 107.072 96.2647 106.4 96.2647H90.7342C89.6854 99.2058 86.8988 101.331 83.6004 101.331C80.302 101.331 77.5154 99.2058 76.4666 96.2647H50.1986C49.4335 98.4103 47.7438 100.1 45.598 100.865V137.266C48.5392 138.315 50.6647 141.101 50.6647 144.399C50.6647 148.59 47.2548 151.999 43.0647 151.999C38.8746 151.999 35.4648 148.59 35.4648 144.399C35.4648 141.101 37.5902 138.315 40.5314 137.266ZM121.6 81.065C122.996 81.065 124.134 79.9301 124.134 78.5317C124.134 77.1333 122.996 75.9984 121.6 75.9984C120.204 75.9984 119.067 77.1333 119.067 78.5317C119.067 79.9301 120.204 81.065 121.6 81.065ZM83.6004 96.2647C84.9963 96.2647 86.1337 95.1297 86.1337 93.7314C86.1337 92.333 84.9963 91.1981 83.6004 91.1981C82.2045 91.1981 81.0671 92.333 81.0671 93.7314C81.0671 95.1297 82.2045 96.2647 83.6004 96.2647ZM43.0673 146.93C44.4631 146.93 45.6006 145.795 45.6006 144.397C45.6006 142.999 44.4631 141.864 43.0673 141.864C41.6714 141.864 40.5339 142.999 40.5339 144.397C40.5339 145.795 41.6714 146.93 43.0673 146.93ZM43.0673 96.2647C44.4631 96.2647 45.6006 95.1297 45.6006 93.7314C45.6006 92.333 44.4631 91.1981 43.0673 91.1981C41.6714 91.1981 40.5339 92.333 40.5339 93.7314C40.5339 95.1297 41.6714 96.2647 43.0673 96.2647Z" fill="#00B2FF"/>
<path d="M53.2014 51.1317V43.0658C53.2014 42.3919 53.4674 41.7484 53.9437 41.2747L84.3638 10.8551C83.8875 9.86459 83.6013 8.77021 83.6013 7.59984C83.6013 3.40979 87.0111 0 91.2012 0C94.4996 0 97.2863 2.12542 98.3351 5.06656H108.934C110.333 5.06656 111.468 6.19893 111.468 7.59984V14.1509L120.879 23.562C121.87 23.0858 122.964 22.7995 124.134 22.7995C128.325 22.7995 131.734 26.2093 131.734 30.3994C131.734 34.5894 128.325 37.9992 124.134 37.9992C119.944 37.9992 116.534 34.5894 116.534 30.3994C116.534 29.229 116.821 28.1346 117.297 27.1441L107.143 16.9907C106.667 16.517 106.401 15.8735 106.401 15.1997V10.1331H98.3351C97.2863 13.0743 94.4996 15.1997 91.2012 15.1997C90.0308 15.1997 88.9364 14.9134 87.9459 14.4372L58.268 44.1145V51.1317C61.2092 52.1805 63.3347 54.9671 63.3347 58.2654C63.3347 62.4555 59.9248 65.8653 55.7347 65.8653C51.5446 65.8653 48.1348 62.4555 48.1348 58.2654C48.1348 54.9671 50.2602 52.1805 53.2014 51.1317ZM124.134 32.9326C125.53 32.9326 126.668 31.7977 126.668 30.3994C126.668 29.001 125.53 27.8661 124.134 27.8661C122.739 27.8661 121.601 29.001 121.601 30.3994C121.601 31.7977 122.739 32.9326 124.134 32.9326ZM91.2012 10.1331C92.5971 10.1331 93.7345 8.99821 93.7345 7.59984C93.7345 6.20147 92.5971 5.06656 91.2012 5.06656C89.8054 5.06656 88.6679 6.20147 88.6679 7.59984C88.6679 8.99821 89.8054 10.1331 91.2012 10.1331ZM55.7347 60.7987C57.1306 60.7987 58.268 59.6638 58.268 58.2654C58.268 56.8671 57.1306 55.7321 55.7347 55.7321C54.3389 55.7321 53.2014 56.8671 53.2014 58.2654C53.2014 59.6638 54.3389 60.7987 55.7347 60.7987Z" fill="#00B2FF"/>
<path d="M60.8004 70.9318C64.0988 70.9318 66.8854 73.0572 67.9342 75.9984H97.7514L112.209 61.541C112.683 61.0647 113.329 60.7987 114 60.7987H140.818L146.933 54.6834V33.9814L127.389 14.4372C126.398 14.9134 125.304 15.1997 124.133 15.1997C119.943 15.1997 116.533 11.7899 116.533 7.59984C116.533 3.40979 119.943 0 124.133 0C128.324 0 131.733 3.40979 131.733 7.59984C131.733 8.77021 131.447 9.86459 130.971 10.8551L151.258 31.1416C151.734 31.6153 152 32.2588 152 32.9326V55.7321C152 56.406 151.734 57.0495 151.258 57.5232L143.658 65.123C143.184 65.5993 142.538 65.8653 141.867 65.8653H115.049L100.591 80.3227C100.118 80.7989 99.4716 81.0649 98.8002 81.0649H67.9342C66.8854 84.0061 64.0988 86.1315 60.8004 86.1315C56.6103 86.1315 53.2004 82.7217 53.2004 78.5317C53.2004 74.3416 56.6103 70.9318 60.8004 70.9318ZM124.133 5.06656C122.738 5.06656 121.6 6.20147 121.6 7.59984C121.6 8.99821 122.738 10.1331 124.133 10.1331C125.529 10.1331 126.667 8.99821 126.667 7.59984C126.667 6.20147 125.529 5.06656 124.133 5.06656ZM60.8004 81.0649C62.1962 81.0649 63.3337 79.93 63.3337 78.5317C63.3337 77.1333 62.1962 75.9984 60.8004 75.9984C59.4045 75.9984 58.2671 77.1333 58.2671 78.5317C58.2671 79.93 59.4045 81.0649 60.8004 81.0649Z" fill="#00B2FF"/>
<path d="M7.59977 60.7988C8.77017 60.7988 9.86456 61.085 10.8551 61.5613L20.2664 52.1501V37.5331C17.3252 36.4843 15.1997 33.6977 15.1997 30.3994C15.1997 26.2094 18.6096 22.7996 22.7997 22.7996C26.9898 22.7996 30.3997 26.2094 30.3997 30.3994C30.3997 33.6977 28.2742 36.4843 25.333 37.5331V53.1989C25.333 53.8728 25.067 54.5162 24.5908 54.9899L14.4372 65.1433C14.9135 66.1338 15.1997 67.2282 15.1997 68.3986C15.1997 71.6969 13.0743 74.4835 10.1331 75.5323V77.4829L29.6574 97.0069C30.1337 97.4806 30.3997 98.1241 30.3997 98.7979V101.797C33.3409 102.846 35.4663 105.633 35.4663 108.931C35.4663 112.229 33.3409 115.016 30.3997 116.065V122.066C33.3409 123.115 35.4663 125.901 35.4663 129.2C35.4663 133.39 32.0565 136.8 27.8663 136.8C23.6762 136.8 20.2664 133.39 20.2664 129.2C20.2664 125.901 22.3918 123.115 25.333 122.066V116.065C22.3918 115.016 20.2664 112.229 20.2664 108.931C20.2664 105.633 22.3918 102.846 25.333 101.797V99.8467L5.80871 80.3227C5.33245 79.849 5.06645 79.2056 5.06645 78.5317V75.5323C2.12526 74.4835 -0.000194073 71.6969 -0.000194073 68.3986C-0.000194073 64.2085 3.40966 60.7988 7.59977 60.7988ZM22.7997 32.9327C24.1956 32.9327 25.333 31.7978 25.333 30.3994C25.333 29.001 24.1956 27.8661 22.7997 27.8661C21.4038 27.8661 20.2664 29.001 20.2664 30.3994C20.2664 31.7978 21.4038 32.9327 22.7997 32.9327ZM27.8663 131.731C29.2622 131.731 30.3997 130.596 30.3997 129.197C30.3997 127.799 29.2622 126.664 27.8663 126.664C26.4705 126.664 25.333 127.799 25.333 129.197C25.333 130.596 26.4705 131.731 27.8663 131.731ZM27.8663 111.464C29.2622 111.464 30.3997 110.329 30.3997 108.931C30.3997 107.533 29.2622 106.398 27.8663 106.398C26.4705 106.398 25.333 107.533 25.333 108.931C25.333 110.329 26.4705 111.464 27.8663 111.464ZM7.59977 70.9319C8.99563 70.9319 10.1331 69.797 10.1331 68.3986C10.1331 67.0002 8.99563 65.8653 7.59977 65.8653C6.20391 65.8653 5.06645 67.0002 5.06645 68.3986C5.06645 69.797 6.20391 70.9319 7.59977 70.9319Z" fill="#00B2FF"/>
</svg>
